<mxfile host="app.diagrams.net" modified="2024-07-22T03:09:35.018Z" agent="Mozilla/5.0 (Windows NT 10.0; Win64; x64) AppleWebKit/537.36 (KHTML, like Gecko) Chrome/125.0.0.0 Safari/537.36 OPR/111.0.0.0" version="24.6.4" etag="56huOiLdd_ivymyn3Tu2" type="github">
  <diagram name="Page-1" id="gZ8cd7wr47dpLlCDI3oh">
    <mxGraphModel>
      <root>
        <mxCell id="0" />
        <mxCell id="1" parent="0" />
      </root>
    </mxGraphModel>
  </diagram>
</mxfile>
